<?xml version="1.0" encoding="UTF-8"?>
<svg width="1440px" height="359px" viewBox="0 0 1440 359" version="1.1" xmlns="http://www.w3.org/2000/svg" xmlns:xlink="http://www.w3.org/1999/xlink">
    <!-- Generator: Sketch 44.1 (41455) - http://www.bohemiancoding.com/sketch -->
    <title>Group</title>
    <desc>Created with Sketch.</desc>
    <defs>
        <path d="M0,0 L1440,0 L1440,383 C1106.24026,415 855.240262,431 687,431 C518.759738,431 289.759738,415 0,383 L0,0 Z" id="path-1"></path>
        <linearGradient x1="50%" y1="6.45328444%" x2="50%" y2="100%" id="linearGradient-3">
            <stop stop-color="#7FD2AC" offset="0%"></stop>
            <stop stop-color="#80A0FF" offset="100%"></stop>
        </linearGradient>
        <linearGradient x1="50%" y1="137.6258%" x2="50%" y2="6.45328444%" id="linearGradient-4">
            <stop stop-color="#FFFFFF" offset="0%"></stop>
            <stop stop-color="#71B280" offset="100%"></stop>
        </linearGradient>
    </defs>
    <g id="Page-1" stroke="none" stroke-width="1" fill="none" fill-rule="evenodd">
        <g id="Desktop-HD">
            <g id="Group">
                <mask id="mask-2" fill="white">
                    <use xlink:href="#path-1"></use>
                </mask>
                <g id="Mask"></g>
                <g mask="url(#mask-2)" id="Rectangle">
                    <g transform="translate(0.000000, -61.000000)">
                        <path d="M-9.09494702e-13,91 L1440,91 C1440,195.666667 1440,267.666667 1440,307 C1440,366 1368,488 1235,370 C1102,252 872,319 699,370 C526,421 276,276 170,262 C99.3333333,252.666667 42.6666667,277.333333 4.26850395e-16,336 L-9.09494702e-13,91 Z" fill="url(#linearGradient-3)"></path>
                        <path d="M0,0 L1440,0 L1440,196 C1252.66667,284 1114.66667,288.666667 1026,210 C893,92 884.550781,272 720,272 C555.449219,272 451.089019,222.943193 279,196 C164.273988,178.037871 71.2739876,187.704538 0,225 L0,0 Z" fill="url(#linearGradient-4)"></path>
                    </g>
                </g>
            </g>
        </g>
    </g>
</svg>