<?xml version="1.0" encoding="UTF-8"?>
<svg width="60px" height="50px" viewBox="0 0 60 50" version="1.1" xmlns="http://www.w3.org/2000/svg" xmlns:xlink="http://www.w3.org/1999/xlink">
    <!-- Generator: Sketch 44.1 (41455) - http://www.bohemiancoding.com/sketch -->
    <title>logo-hover</title>
    <desc>Created with Sketch.</desc>
    <defs>
        <linearGradient x1="50%" y1="0%" x2="50%" y2="100%" id="linearGradient-1">
            <stop stop-color="#FEB692" offset="0%"></stop>
            <stop stop-color="#EA5455" offset="100%"></stop>
        </linearGradient>
        <path d="M17.7410205,22.209699 L37.820424,22.209699 C37.820424,10.882416 28.921866,1.6358835 17.7410205,1.09347 L17.7410205,22.209699 Z M13.516968,22.209699 L0,22.209699 L0,1.0683165 L13.516968,1.0683165 L13.516968,22.209699 Z M18.1634265,50.175669 C20.004363,50.6303535 21.929298,50.8715625 23.9105265,50.8715625 L60,50.8715625 C60,37.651167 49.2952875,26.9346345 36.0894735,26.9346345 L18.1634265,26.9346345 L18.1634265,50.175669 Z M13.516968,48.4980555 C5.5175685,44.6268825 0,36.4260465 0,26.9346345 L13.516968,26.9346345 L13.516968,48.4980555 Z" id="path-2"></path>
    </defs>
    <g id="Page-1" stroke="none" stroke-width="1" fill="none" fill-rule="evenodd">
        <g id="Desktop" transform="translate(-602.000000, -325.000000)">
            <g id="logo-hover" transform="translate(602.000000, 324.000000)">
                <mask id="mask-3" fill="white">
                    <use xlink:href="#path-2"></use>
                </mask>
                <use id="Mask" fill="url(#linearGradient-1)" fill-rule="nonzero" xlink:href="#path-2"></use>
                <g id="shutterstock_348468023" mask="url(#mask-3)">
                    <g transform="translate(-39.000000, -73.500000)">
                        <path d="M111.446192,44.0496267 C110.438611,42.7599198 108.8694,43.6038201 108.061842,44.6292846 C107.75361,45.0202759 107.485092,45.516345 106.903606,45.392692 C105.192668,45.0273782 107.415321,42.8843013 107.760533,42.3412477 C108.581208,41.0493555 108.72075,39.1300925 107.77711,37.8740761 C106.84932,36.6395487 105.056405,36.2035761 103.63712,36.7384347 C101.951321,37.3740005 101.329757,39.2681323 100.879616,40.8419316 C100.514183,42.1188907 99.5104276,43.9609389 98.2328709,44.5001682 C96.0976589,45.4014333 95.266236,42.532828 95.7079977,40.9635814 C96.3222742,38.7842646 97.7094971,36.7003736 96.2552357,34.503392 C94.8858654,32.4346162 92.2839344,33.4405949 90.490655,34.1411741 C89.5634108,34.5037562 88.2248272,34.6541795 87.4196368,33.9488654 C86.5842061,33.2175095 86.3874628,31.7289379 86.2772501,30.7031092 C85.9954334,28.08181 86.5423071,25.4461241 86.3530327,22.8200901 C86.2089364,20.8234301 86.1608436,18.2855376 84.3801339,16.9730669 C82.7883343,15.8000929 80.4359759,15.8374255 79.2234538,17.503737 C78.0699547,19.0893735 78.4812941,21.8419744 79.0185128,23.5485323 C79.8931099,26.3249896 81.4042083,28.7692773 81.6155252,31.7445994 C81.7073388,33.0368558 81.65287,34.4706121 81.0999847,35.6654394 C80.561673,36.8283973 78.8053741,38.3065886 77.5409336,37.0859016 C76.7382936,36.3112034 76.208726,35.4163122 74.9215143,35.5960553 C73.943809,35.7326382 73.2626762,36.4678185 72.7739147,37.274386 C72.1935217,38.2322875 71.5513733,38.9935096 70.3554286,38.4595615 C68.770005,37.7522441 68.5463005,35.4800509 68.3211386,33.989294 C67.995419,31.8371116 67.9748338,29.4084853 66.4484332,27.701199 C65.1626789,26.2628899 62.5215813,25.9826218 61.4230975,27.77204 C60.5111556,29.2569694 61.4230975,31.4565005 61.9621379,32.9066468 C62.8662465,35.3374583 65.2167833,36.7943427 65.5749291,39.5006874 C65.8556527,41.6233679 65.3565075,44.1836601 62.8576846,44.499804 C61.7109258,44.6449461 60.6461434,43.9742329 59.9110883,43.1614736 C59.0414097,42.1995657 58.8883871,40.7089909 58.4564625,39.5341958 C58.0637045,38.4650248 57.3302889,37.5302514 56.5223659,36.7431696 C55.6798307,35.9222153 54.5924592,35.4551017 53.614754,34.8273667 C51.3614959,33.3804984 51.2957326,30.2709609 51.2860776,27.884038 C51.2764226,25.442664 50.8317462,23.1420615 49.3960661,21.1149891 C48.0261493,19.180793 45.8683482,18.4918688 43.636404,19.1911733 C41.5084787,19.8573337 38.6930447,21.3544644 37.0837568,18.9915801 C35.6883362,16.9421081 35.0726023,14.5041942 33.2866098,12.7042136 C31.6221244,11.0264292 28.8691746,11.3074258 27.2699061,12.9613537 C25.5245374,14.7667976 26.4605257,18.2392815 27.394328,20.1853148 C28.617416,22.7344981 31.0032937,24.6448377 33.397369,26.0337949 C34.8197507,26.8589377 36.2700043,27.6421952 37.700948,28.4527692 C39.0972794,29.2442216 40.5271301,29.9402481 41.6502068,31.114679 C45.0862933,34.7071737 44.9509411,39.7940675 46.7037788,44.1414104 C47.260854,45.5230831 48.2997683,46.664552 49.1945863,47.8542802 C50.4681353,49.5462692 51.3935578,51.5061429 51.9367881,53.5508801 C52.6075372,56.0756607 52.1207796,58.8229803 52.9576676,61.3404765 C53.6613894,63.4578758 55.2333325,65.3334323 57.0215111,66.6351584 C60.5268222,69.1883482 66.008311,70.421783 69.7730318,67.6748275 C71.9851195,66.0607818 74.1678779,60.4523234 77.7394987,62.7094014 C82.6608155,65.8196674 80.1980621,71.6861765 80.7576877,76.3443821 C81.0797639,79.0268704 83.3565219,81.1307935 85.7569731,82.1191074 C88.0266265,83.0535166 90.615077,83.0449574 92.8812691,82.1100019 C96.6064591,80.5722604 98.7509618,77.6692363 99.7450623,73.8285249 C100.110677,72.4153471 100.489044,70.8215156 101.686628,69.8641605 C103.481182,68.4289473 105.983284,68.6625951 107.530635,66.7455174 C109.347414,64.4949953 108.357868,62.2297223 108.241825,59.6883696 C108.148919,57.6470926 107.884591,55.6779312 108.257128,53.643028 C108.452049,52.5782277 108.415798,51.4389441 108.860292,50.4318728 C109.308976,49.4149675 110.190496,48.6837937 110.886202,47.8442641 C111.785939,46.758521 112.437013,45.3172982 111.446192,44.0496267" id="Fill-5" fill="#DE91BB"></path>
                        <path d="M136.0985,71.2017624 C135.799378,70.3933737 135.093105,69.8182686 134.282085,69.5702341 C133.897525,69.4525906 132.476783,69.380657 132.413934,68.8543575 C132.325946,68.1193594 133.221857,67.5901461 133.684022,67.163279 C134.345481,66.5522981 134.737874,65.7989068 134.755727,64.8938174 C134.79125,63.074351 132.528155,62.1528716 131.004487,62.3562891 C129.836778,62.5127221 128.83029,63.2245922 127.664222,63.3735586 C126.6029,63.5094131 125.509153,63.141914 124.763168,62.3854268 C123.03383,60.6326128 125.265774,58.2154596 126.511451,56.9769258 C129.738953,53.7679559 134.232717,50.0765751 133.595488,44.9312239 C133.395101,43.3111685 132.722712,41.7177012 131.638984,40.4919151 C130.327726,39.0091711 127.658574,38.949803 126.178445,40.0981921 C123.243143,42.376395 125.394932,46.9320724 124.36039,49.9869768 C124.015179,51.0064316 123.241321,51.9266362 122.212062,52.2979596 C120.961284,52.748501 119.57734,52.5073867 118.4825,53.4146614 C116.999456,54.6435434 117.247571,56.7254311 117.123331,58.4420051 C116.9377,61.0099459 113.204495,64.1852253 110.957613,61.809229 C109.859675,60.6479101 110.463386,58.6916786 110.861609,57.3586295 C111.366766,55.6662762 111.916554,54.1456531 111.612695,52.3458546 C111.346909,50.7716911 110.379224,49.5189527 108.767385,49.1938853 C107.035315,48.8445973 105.394694,49.5541 104.456519,51.0291954 C103.580829,52.4055869 103.483004,54.270581 103.685759,55.8412844 C104.011661,58.3662471 107.395465,63.7277636 104.263966,65.6570427 C103.11411,66.3652706 101.846391,65.7402672 100.649717,65.6018632 C98.9344068,65.4040912 97.5575675,66.5078632 96.9387368,68.0357706 C96.3435881,69.5055848 96.3071541,71.1278255 96.154678,72.6861455 C95.9628532,74.644198 95.0829732,76.6867499 93.4882589,77.9061621 C91.7390646,79.2433998 89.4253261,78.8653383 88.6924571,76.6679925 C87.9011115,74.2956384 89.7291853,72.1194174 91.046455,70.3762553 C92.5471697,68.3901577 93.2053492,65.8142041 92.6745064,63.3682774 C92.1671636,61.0296138 90.013188,59.4641916 89.380148,57.1475633 C89.030382,55.8682368 89.4286052,54.6632113 90.0064477,53.5246562 C91.6825919,50.2220815 93.0295553,46.6922328 90.8692038,43.2780243 C89.6869219,41.4097523 87.6032639,41.1016212 85.6653417,42.0114455 C83.3009601,43.1212272 82.2492939,46.8484837 79.3466006,46.8594103 C78.0333386,46.8645094 76.8694558,46.1794095 75.5306901,46.3511398 C74.1196029,46.5321576 72.7250932,47.2895554 71.7854614,48.3558126 C70.846194,49.4215235 70.4319399,50.9142836 70.4330329,52.308522 C70.4337616,53.1846558 70.7055589,54.025096 71.0582396,54.8147273 C71.3143704,55.3887397 71.7167834,55.8259871 71.9124338,56.4406102 C72.5343614,58.3911962 73.2808932,60.7905026 72.1135492,62.6860913 C71.2915991,64.0213258 69.8367912,64.8233406 68.976039,66.1148686 C68.0036167,67.5741204 68.3530183,69.4817283 69.5591645,70.7191695 C69.8916243,71.0602625 70.6674855,71.2622231 71.0948558,71.4916824 C71.5599352,71.741356 72.021007,72.0032309 72.4529315,72.3079019 C73.1644867,72.810527 73.8142863,73.4266069 74.1655097,74.2386378 C74.8502859,75.8228175 74.3045052,77.6912716 73.5541479,79.1485202 C72.4263347,81.3383995 70.1167862,82.9404259 69.7610086,85.5182007 C69.3963047,88.1580751 71.1706384,90.6098294 73.2386298,92.0417646 C74.8628556,93.1664793 76.91682,93.5785955 78.4058758,94.9085488 C80.7004864,96.9572924 80.2313992,99.6060902 80.0827487,102.356506 C79.9204354,105.363879 81.1127366,107.782854 83.6514548,109.424034 C84.9259146,110.248084 86.5005902,110.789499 88.004584,110.954855 C89.6544957,111.135873 91.1909157,110.743971 92.8100407,110.510323 C95.6109012,110.106584 96.9252562,106.94387 96.9740777,104.44331 C97.0032249,102.954557 96.9349112,101.438487 97.310181,99.9837875 C97.6550284,98.6474603 98.56023,97.9048135 99.4610596,96.9323432 C99.5566988,96.8289044 100.851197,96.9561997 101.063607,96.9618451 C101.569493,96.9751392 102.053336,97.0498045 102.546834,97.1621667 C103.694685,97.4236775 104.79663,97.8629281 105.960878,98.0570579 C109.4017,98.6307062 114.077999,98.2808718 116.923309,96.0343561 C118.984196,94.4077448 120.74687,91.6728086 120.542658,88.9557193 C120.352655,86.4236543 118.314539,84.4326397 118.436958,81.8279126 C118.498531,80.5154419 118.683798,78.293147 120.397833,78.2259482 C122.908315,78.1279727 124.367859,80.6950029 126.674493,81.0211629 C128.562683,81.2886833 130.304408,80.296363 131.342958,78.7644491 C131.967618,77.8424234 132.384605,76.7900066 133.06428,75.9036745 C134.245469,74.3639299 137.024287,73.7043255 136.0985,71.2017624" id="Fill-6" fill="#1F1F1F"></path>
                        <path d="M80.7409281,73.036344 C80.4026388,73.428428 80.1087989,73.8405442 79.6792426,74.1437582 C79.2883062,74.4192915 78.3253567,74.8461586 77.8832307,74.4733783 C76.9395912,73.6784658 78.6436074,72.667206 79.1010357,72.1931722 C79.8184203,71.449797 80.3754955,70.1952374 80.1446864,69.1541115 C79.7358974,67.3084211 77.7843125,67.0986298 76.2692064,66.6475419 C75.1075096,66.3018961 75.0308162,65.2757032 75.2865825,64.2631686 C75.6024649,63.0097017 76.5730656,62.2317255 76.9993429,61.0423615 C77.7409561,58.9726752 76.8115258,56.664242 75.1193507,55.4166026 C73.413695,54.1587651 71.194867,54.2328841 69.9304265,56.0182959 C69.3806381,56.794451 69.035062,57.6800546 69.1021005,58.6397771 C69.1421778,59.2126969 69.3959403,59.7362647 69.6083503,60.2601967 C69.9584806,61.1234007 70.2344679,62.2218915 69.7158305,63.0761721 C69.3463902,63.6847855 68.2520963,64.393924 67.524328,63.9930987 C66.8071255,63.5975546 67.066171,62.326423 66.8324471,61.6677291 C66.4872354,60.6959873 65.7137425,60.085917 64.7864983,59.7138651 C63.6892896,59.273886 62.6057438,60.1571222 61.7030925,60.6393509 C60.6006009,61.2284785 59.4930086,60.6852428 58.8938522,59.6738008 C58.239134,58.5682077 58.6785275,57.2653889 59.045964,56.1530577 C59.8231003,53.8023748 59.0133556,51.7760307 57.2794636,50.0891408 C56.0527322,48.8954062 53.9346441,48.5397443 52.9910046,47.0806746 C52.2506666,45.9357456 52.5089834,44.1563435 52.2371861,42.8466045 C51.9162029,41.3035818 51.346558,39.809729 50.3994573,38.5396901 C49.186753,36.913443 47.3131368,35.580758 45.2014246,36.1241759 C43.601063,36.5361099 42.7022373,38.2077026 42.4167772,39.710843 C42.0178254,41.8102134 42.7840315,43.6422454 44.0608596,45.2923491 C44.7649458,46.2018091 45.564489,47.0273162 46.2928038,47.9161978 C46.6635193,48.3685604 46.9708397,48.8850259 47.1663079,49.4360924 C47.3470203,49.946184 47.4020356,50.9299452 46.7677204,51.1863568 C45.9905841,51.5004975 45.1185373,51.4449538 44.6403417,52.2826623 C44.2213511,53.0167499 44.2625215,53.8564616 44.6122875,54.6120382 C44.9709798,55.3872828 45.5728688,55.9166782 46.2663892,56.3921688 C46.8107125,56.7653133 47.4736283,57.0721696 47.8416113,57.6430861 C48.9940174,59.4308653 46.6347365,59.1988565 45.6049307,58.9256907 C44.5525358,58.646151 43.105379,58.1943347 42.071019,58.7770885 C40.5325952,59.6437526 40.4227468,61.7857368 41.2958866,63.1643136 C42.479808,65.0334962 45.0057742,65.7309796 47.0039946,66.2336047 C50.5663248,67.1299528 53.3005111,69.7126445 54.6088545,73.1273993 C54.9781127,74.0916746 55.5382847,76.0690309 54.9690042,77.0635366 C54.8179854,77.3266863 54.6981177,77.6207949 54.5430912,77.9152676 C54.1149922,78.7272985 52.6778548,79.4451783 51.8005251,79.2029713 C50.8552461,78.942189 50.158811,78.0136073 49.2419504,77.6468367 C48.1746177,77.2199696 47.2555711,77.4173774 46.3991909,78.1554714 C45.6018338,78.8422103 45.1210877,79.6724522 44.0843595,80.0594371 C43.0520033,80.4446009 41.9631745,80.0239256 41.8134309,78.8387502 C41.6819043,77.7947104 42.0283913,76.751217 41.5620366,75.7477879 C41.1179067,74.7917076 40.2096081,74.1301 39.2375501,73.7766234 C38.2902673,73.4318881 37.2990815,74.2766989 36.367283,74.3528212 C35.0565714,74.4599022 34.5111551,73.2638001 33.3709544,72.9070455 C31.5585472,72.3403175 29.2781458,73.4539235 28.9557053,75.4141614 C28.5893618,77.6419197 30.5096135,79.6831968 32.1001379,80.9233696 C34.0544554,82.4470885 35.9621374,84.2219378 35.8242349,86.8665472 C35.7615685,88.0682946 35.2405629,89.256748 34.8658396,90.3856513 C34.469256,91.5797501 34.2133075,92.798616 34.2797994,94.0613705 C34.3894656,96.1463541 35.3617058,98.175794 36.9653464,99.5161276 C38.7229205,100.985395 41.4328782,101.648096 43.6832216,101.525353 C46.0434133,101.396965 48.2217996,100.214339 49.682437,98.3575403 C50.5282513,97.2823597 51.1618378,95.9329206 52.5430491,95.4519666 C54.802501,94.6652491 57.117879,95.4892993 59.3662185,95.8646291 C61.5928797,96.2363167 63.8322929,95.9635151 65.7940793,94.801832 C67.5627658,93.7546964 69.2376348,92.4034361 70.0836313,90.4777992 C70.8350817,88.7668707 70.7245046,86.78223 71.3573624,85.0387036 C71.6847215,84.1367101 72.2547308,83.4273895 73.1561069,83.0538808 C75.0698005,82.2596967 77.1033618,83.2822474 78.8243198,81.7472377 C79.6888976,80.9752711 79.5533633,79.751124 80.2876897,78.9179683 C81.3597589,77.7023804 83.0612247,77.3793163 84.0185269,75.9652279 C84.9140735,74.6423769 84.6747024,72.8447637 83.0739765,72.2880518 C82.1698679,71.973729 81.3306117,72.3532474 80.7409281,73.036344 Z" id="Fill-7" fill="#C42F69"></path>
                        <path d="M61.404334,101.43102 C61.059851,99.0608513 59.8954217,96.6901362 58.5098383,95.1436535 C57.7164889,94.2584141 56.8041826,93.4726071 55.7825744,92.8605336 C54.4982774,92.0907523 52.4658091,91.9439712 51.9304121,90.2975098 C51.5682586,89.1831754 51.8568155,88.0140257 51.8041685,86.872921 C51.7247425,85.1461488 50.9621797,82.9162052 49.1552376,82.3223428 C48.2773614,82.0335154 47.1797885,82.3981007 46.5201517,83.0001582 C44.8108526,84.5602992 45.1393047,87.0777954 46.6638836,88.6246423 C47.3167801,89.2869784 48.2134198,89.8225655 48.5595424,90.7289297 C49.0366451,91.9783901 47.6751081,92.4318454 46.7684491,91.9876777 C45.9091542,91.5660918 45.4291368,90.7782816 44.3443158,90.9678587 C43.3862848,91.1354004 42.6164353,91.869488 42.655784,92.8780162 C42.6913071,93.7792813 43.5367571,94.3401817 44.229731,94.7517516 C45.1393047,95.2917093 45.6963799,96.304244 45.3894238,97.3532007 C44.4984314,100.397907 41.0820192,97.1282942 39.4153479,96.7933929 C38.3338058,96.5759529 37.3050931,96.7591561 36.3159111,97.216982 C35.227811,97.7197892 34.4891125,98.8758269 33.3210398,99.1835938 C32.1637152,99.4879005 30.7533567,98.5223504 29.5876523,98.442586 C28.3693007,98.3589972 27.225821,98.711199 26.2269841,99.407954 C24.2930696,100.756665 24.2189265,103.040149 25.3208715,104.952309 C26.3809175,106.79199 29.117472,107.42792 31.0867274,107.359993 C32.658124,107.305542 34.2714196,106.777057 35.7950877,106.423763 C37.4847125,106.032589 39.1422754,105.640323 40.8900123,105.701512 C42.5586875,105.760152 43.7462523,106.496425 45.008689,107.493662 C47.2118503,109.234821 50.3162057,109.788983 53.034361,109.546412 C55.3499212,109.339717 58.4788694,108.902651 60.0892503,107.027095 C61.3897604,105.512299 61.7010886,103.471569 61.404334,101.43102" id="Fill-8" fill="#08293C"></path>
                        <path d="M79.9625166,78.38056 C79.5839678,78.08718 79.1704424,77.9398525 78.7381535,77.8801203 C77.3775273,77.6920001 75.5871627,78.598 74.3862995,77.662134 C73.257029,76.7818116 73.4741753,75.2367857 73.6505157,73.9907854 C73.8849682,72.3372217 73.5437642,70.1415148 72.4252417,68.8596387 C71.1116154,67.3546772 68.8049816,66.8826467 67.0384811,67.8430977 C64.9947183,68.953972 63.9864086,70.9894215 64.031951,73.2690813 C64.081319,75.7556187 66.3475112,77.8502541 65.8563814,80.4438725 C65.677855,81.3879336 64.8178315,81.9805213 64.0853268,82.4951657 C63.2406055,83.0884818 62.6968286,84.0185204 62.6104802,85.0472628 C62.4436126,87.0333604 63.9106259,89.296266 62.4541785,91.0272267 C61.73479,91.8824179 60.6383101,92.2637573 59.5487526,92.2653963 C58.3466142,92.2672174 57.4605403,91.0204886 56.3043087,90.7271086 C54.1026047,90.1683934 52.3634297,92.592649 52.4545146,94.53504 C52.5060687,95.6369909 53.1099615,96.6431517 53.7621293,97.4939721 C54.510665,98.4708131 55.1079997,99.4826193 55.7142608,100.55179 C56.312142,101.606757 55.941973,102.833635 55.3176771,103.777879 C54.6159591,104.838855 53.3710108,105.020237 52.2096784,105.00931 C49.9892109,104.988367 47.9749596,105.116391 46.527985,107.004695 C45.467939,108.388007 45.2260175,110.395047 45.7213372,112.033314 C46.3294199,114.044725 48.1709743,114.978405 50.0959624,115.392707 C51.212481,115.633275 52.37017,115.691915 53.5069095,115.755289 C54.7398346,115.82358 55.7958728,115.825948 56.8777792,116.477175 C57.793911,117.028606 58.4952647,117.877241 59.0820336,118.755742 C60.0391536,120.18877 61.8087509,122.102024 63.4544728,122.683685 C65.8787883,123.540515 68.6310094,122.302345 70.3180838,120.62274 C72.1632816,118.785608 73.6512444,116.410705 73.3457456,113.717472 C73.1136613,111.671642 72.2793237,109.765855 71.6082102,107.837669 C70.7746013,105.442187 69.9940038,102.978049 72.1683823,101.026735 C73.9818825,99.3990305 75.1065988,97.5327617 75.3709271,95.0861065 C75.7512977,91.5679129 75.117529,88.148059 77.520895,85.1880343 C78.5592627,83.9090719 80.4048248,83.3255897 80.9309312,81.6326901 C81.2757786,80.5229085 80.8830205,79.0940692 79.9625166,78.38056" id="Fill-9" fill="#DE91BB"></path>
                        <path d="M110.845214,100.958807 C110.755951,99.6017196 110.494355,98.2644819 110.083744,97.0412453 C109.581138,95.5441146 108.781595,94.118189 108.584487,92.5318241 C108.395577,91.0113831 109.395325,89.4956771 108.925326,88.0200353 C108.561351,86.877838 107.671088,86.1180728 106.417577,86.428025 C105.656654,86.6157809 105.126176,87.3520539 104.761107,87.9901692 C104.263237,88.8601113 103.898533,89.7881466 103.380625,90.6539001 C102.986409,91.312594 102.713155,91.6600609 101.918166,91.6831889 C101.504458,91.6952082 101.29806,91.5278486 101.189487,91.1488766 C100.944468,90.2956887 101.424668,89.1624148 101.756945,88.4019211 C102.640833,86.3799478 104.122056,84.2035447 103.530733,81.8869164 C103.076401,80.1082428 101.398435,78.6373359 99.5260942,78.8775397 C97.4938081,79.1377757 96.5815018,81.0645052 96.5082696,82.935509 C96.4406846,84.6599137 97.2821268,86.3187586 97.1649916,88.0484446 C97.0797362,89.3164803 96.0998449,90.0922712 95.0676709,90.6491653 C93.2310351,91.6398466 91.4213605,92.8412299 91.6109992,95.1482062 C91.7640218,97.0084654 92.7779789,98.5937377 93.1964229,100.378239 C93.4729566,101.55704 93.4838868,102.91777 92.8577692,103.989855 C92.4322206,104.718662 91.6609137,105.346761 90.8101808,105.477698 C90.062556,105.592974 88.7503871,105.094356 88.4525395,104.314558 C88.0448435,103.248301 88.8004838,102.137427 88.891933,101.083189 C88.9762776,100.10999 88.549636,99.0626724 87.735337,98.5015898 C87.1004753,98.0641603 86.2388122,97.9813 85.7247291,97.3637631 C85.0742008,96.5815983 85.7076051,95.3802151 85.8143566,94.5126404 C85.9320383,93.5565601 85.8602634,92.5911921 85.3347036,91.7660492 C83.2885725,88.5510697 77.9169321,91.0898728 78.5164528,94.6525013 C78.6944327,95.7094709 79.0540359,96.7019734 79.129272,97.782071 C79.3626315,101.146563 77.6420379,104.403246 79.0684273,107.701086 C79.920071,109.670794 82.21286,110.228234 83.8228765,111.380265 C86.0768633,112.9934 85.9282127,115.946505 85.4527496,118.394435 C85.2115568,119.634972 84.8889341,120.79101 84.8863837,122.069062 C84.8838334,123.349481 85.2518163,124.575813 85.8464185,125.699071 C86.9521891,127.788061 88.7212399,129.00201 91.0382574,129.270259 C93.6270722,129.569649 95.8318731,129.18667 98.1363209,127.965801 C100.246576,126.848371 101.647826,125.088454 102.251536,122.78075 C102.892774,120.32936 102.622616,117.56565 102.376869,115.077656 C102.023095,111.497727 105.974722,110.857062 108.200291,109.145951 C109.045194,108.495999 109.744362,107.609667 110.113984,106.600592 C110.750668,104.861618 110.972186,102.890454 110.845214,100.958807" id="Fill-10" fill="#138AA0"></path>
                        <path d="M137.579359,118.872839 C136.307449,117.445821 134.281903,117.048092 132.411748,117.516298 C130.34485,118.03331 129.000619,119.72967 127.218088,120.759323 C125.959659,121.485944 124.031574,121.996764 123.045671,120.577576 C121.745525,118.706755 123.506014,116.416532 124.830753,115.141941 C125.929419,114.084971 126.624214,112.666148 126.695078,111.136966 C126.795818,108.963476 125.222053,107.537915 123.154791,107.411166 C121.47555,107.308456 120.463961,108.423519 119.791754,109.828866 C119.22721,111.009306 118.804576,113.232694 117.399136,113.703632 C116.335993,114.059658 115.511857,113.088644 115.306552,112.121819 C115.005972,110.703725 115.911173,109.425127 116.54476,108.239951 C117.228625,106.961717 117.805011,105.615738 118.221633,104.226417 C118.936831,101.841497 118.930091,99.0071286 117.936719,96.7087115 C117.112948,94.8032889 114.947313,92.9758096 112.95474,92.4873891 C111.040864,92.0182723 108.827137,92.2854285 107.204733,93.4471116 C105.137106,94.9274883 104.039169,97.0711115 104.1829,99.6248476 C104.28783,101.49057 104.762565,103.346094 104.321349,105.211271 C103.856999,107.175333 102.236234,108.125404 100.389397,108.621291 C99.1500958,108.953824 97.865981,109.288179 97.2817625,110.560768 C96.6334202,111.973217 97.193228,113.739872 98.2299562,114.829075 C99.2105762,115.858728 99.7787637,117.029334 99.5599778,118.4915 C99.3240679,120.065117 99.1597508,121.530561 100.249855,122.868163 C100.927709,123.700226 102.013623,124.20886 102.713155,125.06132 C103.355303,125.843849 103.687945,126.729817 103.62036,127.74745 C103.47845,129.889799 102.19725,131.822538 101.771701,133.908614 C101.370563,135.871038 101.473854,137.888458 102.359745,139.703918 C103.358764,141.750112 105.438415,142.908153 107.594941,143.334656 C109.956043,143.801952 112.656346,143.582508 114.960065,142.928732 C117.376365,142.243085 119.850595,141.240385 121.919862,139.807357 C123.663591,138.599418 124.486998,137.030171 124.821462,134.973597 C125.241363,132.394547 125.500955,130.18245 128.054611,128.88291 C130.874235,127.448061 134.292105,127.529828 136.731176,125.284041 C138.209848,123.922401 139.209596,121.500877 138.114938,119.613301 C137.956814,119.341228 137.777195,119.094468 137.579359,118.872839" id="Fill-13" fill="#08293C"></path>
                        <path d="M111.972116,112.90016 C111.040864,112.276978 109.79209,112.048975 108.763013,112.341081 C106.901238,112.86993 106.318477,114.786643 105.72351,116.410705 C105.449163,117.160454 104.990277,118.330332 104.092909,118.49751 C103.011549,118.69856 102.24516,117.461483 101.320467,117.124578 C100.260603,116.738322 99.0466234,117.053919 98.2314136,117.804761 C97.0850191,118.860638 97.3963473,120.580126 97.5169437,121.958703 C97.6812608,123.835352 96.8203264,125.833833 94.8261138,126.196051 C92.9067729,126.544246 90.9539128,125.0941 90.2950047,123.309963 C88.6596665,118.883402 92.7125799,112.698199 87.3766447,109.7939 C86.4078658,109.266872 85.2924402,109.083305 84.3320411,108.542983 C79.818056,106.003452 81.2843406,99.4367274 81.669994,95.3303168 C81.8485204,93.4285364 82.1609416,91.2468521 81.2202168,89.4862073 C80.3436158,87.8453913 78.1535706,86.8967775 76.3411634,86.828486 C74.5582677,86.760923 71.7940234,87.3278332 70.6091911,88.788906 C69.8203959,89.7621048 69.6236526,91.156161 69.6784857,92.3717489 C69.7400591,93.7412202 70.48568,95.1332732 69.9980115,96.4934568 C69.4955872,97.8935227 68.0936085,97.813394 66.9007608,98.1907271 C64.9282264,98.8142736 64.021203,101.149477 64.3523877,103.061274 C64.7555294,105.389193 66.4079915,107.265478 67.39772,109.331522 C67.9569812,110.499214 68.3883593,112.490047 67.8139779,113.725303 C66.9340979,115.617978 64.5285458,114.670456 63.0079746,114.721265 C60.9951807,114.788828 58.9995107,115.686633 57.95586,117.451831 C57.179088,118.76503 57.1326347,120.43808 57.5822297,121.864187 C58.151146,123.668174 59.7974143,124.4884 60.7496158,126.019221 C61.5118142,127.244825 61.7828828,129.183028 60.7876893,130.364197 C59.3911757,132.021767 56.6180051,130.006167 54.9116207,131.273657 C53.7222342,132.156893 53.4101773,133.957784 54.0563335,135.250223 C54.7432958,136.625704 56.1188599,137.519502 57.4567148,138.182567 C59.076022,138.98531 60.8086388,139.455155 62.5962709,139.684979 C64.1835163,139.88876 65.8458156,139.964518 67.4088323,140.409779 C69.1041044,140.893282 70.6718575,142.064071 72.4864508,142.049866 C74.3828382,142.034569 76.1231062,140.962302 77.8265759,140.26409 C79.7222347,139.487207 81.7916834,138.640757 83.8549384,138.482321 C86.9674914,138.243392 89.3335125,140.762709 91.8020953,142.235619 C94.2500929,143.695963 97.8883879,144.163077 100.560454,143.189514 C103.008816,142.297901 104.628306,140.364069 105.435318,137.933986 C106.868083,133.618148 106.875916,129.014393 108.584851,124.746269 C109.740172,121.861273 115.308374,116.983807 112.772206,113.644628 C112.55342,113.356165 112.280165,113.106491 111.972116,112.90016" id="Fill-14" fill="#C42F69"></path>
                        <path d="M74.3704507,112.78889 C73.8785923,111.805311 74.2775441,110.609573 75.2608966,110.118057 C76.2455243,109.625994 77.4412868,110.024817 77.932963,111.007849 C78.4250036,111.991793 77.9325987,115.460088 77.9325987,115.460088 C77.9325987,115.460088 74.8624913,113.772287 74.3704507,112.78889" id="Fill-28" fill="#DE91BB"></path>
                        <path d="M57.2869325,109.429679 C56.8397057,108.848929 56.9486432,108.015227 57.5295827,107.56851 C58.111433,107.121064 58.9450419,107.229784 59.3922687,107.811081 C59.8394956,108.392196 59.9586346,110.725214 59.9586346,110.725214 C59.9586346,110.725214 57.7341593,110.01134 57.2869325,109.429679" id="Fill-29" fill="#C42F69"></path>
                        <path d="M39.6771258,125.172407 C38.4028482,124.435042 37.9680089,122.804242 38.7054322,121.530743 C39.4437663,120.255787 41.0747324,119.821453 42.3490101,120.559183 C43.6234699,121.296731 45.6277019,125.537175 45.6277019,125.537175 C45.6277019,125.537175 40.95195,125.910319 39.6771258,125.172407" id="Fill-31" fill="#C42F69"></path>
                        <path d="M54.5540214,85.7148801 C54.2184646,85.1783824 54.3818709,84.4716114 54.9179966,84.1367101 C55.4550332,83.8012625 56.1614876,83.9640693 56.4970443,84.500567 C56.8326011,85.0372467 56.7396945,87.0504788 56.7396945,87.0504788 C56.7396945,87.0504788 54.8892138,86.2511956 54.5540214,85.7148801" id="Fill-32" fill="#DE91BB"></path>
                        <path d="M114.048123,140.830636 C112.507149,139.033023 109.909043,141.10016 108.00883,140.530518 C106.707956,140.140255 106.178206,138.884056 106.621972,137.685041 C107.056993,136.509153 107.923028,135.548338 108.562444,134.485541 C109.748734,132.513283 110.554835,129.900725 109.96752,127.604858 C109.640889,126.328627 108.524371,125.468883 107.220764,125.281492 C105.790367,125.075889 104.147742,125.322831 103.057456,126.322253 C101.36273,127.875838 100.894189,130.378219 101.202421,132.565913 C101.62214,135.54943 99.4397457,139.825204 95.8684893,139.342793 C94.5599637,139.166328 94.0967059,137.885909 93.7447539,136.7876 C93.3150154,135.44672 92.8701568,134.230586 91.3616088,133.81337 C90.4472986,133.560419 89.430609,133.968711 88.5465391,134.165026 C87.4263771,134.414153 86.2694168,133.950318 85.4667767,133.200569 C83.8660508,131.705259 83.6246758,129.676001 83.129174,127.65421 C82.6435093,125.672847 82.0820621,123.759958 80.8061449,122.147915 C78.7157466,119.507313 75.0854671,118.304108 72.3379824,120.771524 C69.5728272,123.255148 71.8224419,126.944707 73.665818,129.195411 C74.3312842,130.008171 75.053223,130.804176 75.6509221,131.66829 C77.1075517,133.774217 76.5360851,136.475645 73.8306816,137.032356 C73.3484782,137.131607 72.6290897,136.911617 72.1310375,136.879384 C71.6253342,136.846968 71.116534,136.826389 70.6102841,136.857348 C69.8446245,136.903969 69.0647557,137.064226 68.450297,137.550461 C67.3682085,138.406381 66.9650667,140.014417 67.2006123,141.329983 C67.8901249,145.183989 71.6293419,145.356994 74.8204101,145.397058 C76.1318503,145.413448 77.4932052,145.285971 78.7530914,145.710288 C80.9138072,146.43873 81.9991748,148.461978 82.8646635,150.417846 C83.8057526,152.543076 84.6515669,154.529902 86.4146061,156.130653 C87.8399025,157.423638 89.6963948,158.175755 91.6221116,158.223104 C93.6808123,158.275916 95.928241,157.480093 97.3921574,156.02685 C98.6711714,154.75754 99.396025,153.102155 100.427106,151.650734 C101.069619,150.747466 101.892298,149.937074 102.880569,149.421701 C104.441946,148.604025 106.5471,148.980993 108.250387,148.636805 C110.115442,148.259836 111.925481,147.434875 113.243297,146.032624 C114.384773,144.81995 115.270664,142.608399 114.240312,141.083952 C114.178374,140.992168 114.114069,140.907851 114.048123,140.830636" id="Fill-34" fill="#DE91BB"></path>
                        <path d="M40.8120436,113.283138 C40.7001914,112.978467 40.355344,112.777782 40.0352716,112.857546 C39.6363198,112.956068 39.4536035,113.301349 39.2302634,113.608934 C39.0047372,113.27294 38.82111,112.953154 38.3724258,112.862463 C37.9800321,112.783063 37.65158,113.132715 37.575433,113.482367 C37.4850768,113.897397 37.7508625,114.341019 38.0064467,114.639498 C38.2037366,114.869503 38.452034,115.057077 38.6731882,115.263226 C38.8036217,115.384876 38.9258576,115.505251 39.0697718,115.61215 C39.1426397,115.666237 39.2140502,115.726698 39.2927476,115.771315 C39.5441419,115.583741 40.2134337,114.900462 40.3637238,114.742572 C40.6553776,114.436627 40.9206168,114.042904 40.8841828,113.599464 C40.8752565,113.491291 40.8493884,113.384938 40.8120436,113.283138" id="Fill-53" fill="#FFFFFF"></path>
                        <path d="M71.3670174,116.316554 C70.3412194,116.316554 70.3412194,117.906379 71.3670174,117.906379 C72.3928155,117.906379 72.3928155,116.316554 71.3670174,116.316554" id="Fill-61" fill="#DE91BB"></path>
                        <path d="M70.1149481,119.886467 C69.7614998,119.886467 69.7614998,120.416467 70.1149481,120.416467 C70.4683964,120.416467 70.4683964,119.886467 70.1149481,119.886467" id="Fill-62" fill="#DE91BB"></path>
                        <path d="M67.1113491,118.079202 C66.3110772,118.079202 66.3110772,119.319557 67.1113491,119.319557 C67.9114388,119.319557 67.9114388,118.079202 67.1113491,118.079202" id="Fill-63" fill="#DE91BB"></path>
                        <path d="M70.8028376,106.474025 C69.7542683,106.474025 69.7542683,108.09918 70.8028376,108.09918 C71.8512247,108.09918 71.8512247,106.474025 70.8028376,106.474025" id="Fill-64" fill="#DE91BB"></path>
                        <path d="M60.6230255,77.0717316 C59.9159403,77.0717316 59.9159403,78.1317316 60.6230255,78.1317316 C61.3297334,78.1317316 61.3297334,77.0717316 60.6230255,77.0717316" id="Fill-65" fill="#DE91BB"></path>
                        <path d="M58.3391452,80.5168988 C57.607187,80.5168988 57.607187,81.6514475 58.3391452,81.6514475 C59.0709212,81.6514475 59.0709212,80.5168988 58.3391452,80.5168988" id="Fill-66" fill="#DE91BB"></path>
                        <path d="M57.1877645,73.2430395 C56.8544233,73.2430395 56.8544233,73.7596367 57.1877645,73.7596367 C57.5211057,73.7596367 57.5211057,73.2430395 57.1877645,73.2430395" id="Fill-67" fill="#DE91BB"></path>
                        <path d="M89.4808997,89.7766736 C89.0717306,89.7766736 89.0717306,90.4110111 89.4808997,90.4110111 C89.8900688,90.4110111 89.8900688,89.7766736 89.4808997,89.7766736" id="Fill-113" fill="#138AA0"></path>
                        <path d="M92.2118269,88.9027251 C91.806639,88.9027251 91.806639,89.5306507 92.2118269,89.5306507 C92.6165725,89.5306507 92.6165725,88.9027251 92.2118269,88.9027251" id="Fill-114" fill="#138AA0"></path>
                        <path d="M83.6280136,86.452792 C83.0890163,86.452792 83.0890163,87.288552 83.6280136,87.288552 C84.1672321,87.288552 84.1672321,86.452792 83.6280136,86.452792" id="Fill-115" fill="#138AA0"></path>
                        <path d="M87.8320692,83.7154884 C87.1197853,83.7154884 87.1197853,84.8203531 87.8320692,84.8203531 C88.5447174,84.8203531 88.5447174,83.7154884 87.8320692,83.7154884" id="Fill-116" fill="#138AA0"></path>
                        <path d="M96.6321742,103.318049 C96.2787259,103.318049 96.2787259,103.848049 96.6321742,103.848049 C96.9856225,103.848049 96.9856225,103.318049 96.6321742,103.318049" id="Fill-170" fill="#C42F69"></path>
                        <path d="M94.0658865,114.81833 C93.3589899,114.81833 93.3589899,115.87833 94.0658865,115.87833 C94.772783,115.87833 94.772783,114.81833 94.0658865,114.81833" id="Fill-171" fill="#C42F69"></path>
                        <path d="M92.7047466,111.510839 C91.7452583,111.510839 91.7452583,112.998317 92.7047466,112.998317 C93.664417,112.998317 93.664417,111.510839 92.7047466,111.510839" id="Fill-172" fill="#C42F69"></path>
                        <path d="M95.5129845,97.6114334 C94.9682367,97.6114334 94.9682367,98.4555953 95.5129845,98.4555953 C96.0577323,98.4555953 96.0577323,97.6114334 95.5129845,97.6114334" id="Fill-173" fill="#C42F69"></path>
                        <path d="M63.9255639,109.189658 C62.7576734,109.189658 62.7576734,111.000383 63.9255639,111.000383 C65.0936365,111.000383 65.0936365,109.189658 63.9255639,109.189658" id="Fill-178" fill="#C42F69"></path>
                        <path d="M63.3309617,105.463858 C62.6157631,105.463858 62.6157631,106.572183 63.3309617,106.572183 C64.0457959,106.572183 64.0457959,105.463858 63.3309617,105.463858" id="Fill-179" fill="#C42F69"></path>
                        <path d="M58.42388,102.753871 C57.9388488,102.753871 57.9388488,103.506055 58.42388,103.506055 C58.9093536,103.506055 58.9093536,102.753871 58.42388,102.753871" id="Fill-180" fill="#C42F69"></path>
                        <path d="M62.8996328,94.9192933 C62.192627,94.9192933 62.192627,95.9792933 62.8996328,95.9792933 C63.6064201,95.9792933 63.6064201,94.9192933 62.8996328,94.9192933" id="Fill-181" fill="#C42F69"></path>
                        <path d="M67.5780681,85.3914517 C66.8608656,85.3914517 66.8608656,86.5034187 67.5780681,86.5034187 C68.2950883,86.5034187 68.2950883,85.3914517 67.5780681,85.3914517" id="Fill-182" fill="#C42F69"></path>
                        <path d="M70.5707533,78.9696877 C69.7513536,78.9696877 69.7513536,80.2400908 70.5707533,80.2400908 C71.3905173,80.2400908 71.3905173,78.9696877 70.5707533,78.9696877" id="Fill-183" fill="#C42F69"></path>
                        <path d="M71.7652987,83.4448721 C71.1353995,83.4448721 71.1353995,84.4212521 71.7652987,84.4212521 C72.3949767,84.4212521 72.3949767,83.4448721 71.7652987,83.4448721" id="Fill-184" fill="#C42F69"></path>
                        <path d="M67.1669108,94.7839851 C66.2815657,94.7839851 66.2815657,96.1567344 67.1669108,96.1567344 C68.0524382,96.1567344 68.0524382,94.7839851 67.1669108,94.7839851" id="Fill-185" fill="#C42F69"></path>
                        <path d="M55.9875154,122.87745 C54.9549771,122.87745 54.9549771,124.478384 55.9875154,124.478384 C57.0204181,124.478384 57.0204181,122.87745 55.9875154,122.87745" id="Fill-188" fill="#C42F69"></path>
                        <path d="M50.2011095,118.957157 C49.494001,118.957157 49.494001,120.017157 50.2011095,120.017157 C50.9077941,120.017157 50.9077941,118.957157 50.2011095,118.957157" id="Fill-189" fill="#C42F69"></path>
                    </g>
                </g>
            </g>
        </g>
    </g>
</svg>