<?xml version="1.0" encoding="UTF-8"?>
<svg width="30px" height="21px" viewBox="0 0 30 21" version="1.1" xmlns="http://www.w3.org/2000/svg" xmlns:xlink="http://www.w3.org/1999/xlink">
    <!-- Generator: Sketch 44.1 (41455) - http://www.bohemiancoding.com/sketch -->
    <title>Shape</title>
    <desc>Created with Sketch.</desc>
    <defs></defs>
    <g id="Page-1" stroke="none" stroke-width="1" fill="none" fill-rule="evenodd">
        <path d="M23.1816129,0.545 C19.416129,0.545 16.3635484,3.59758065 16.3635484,7.36306452 C16.3635484,11.0827419 19.3425806,14.1043548 23.0448387,14.1782258 C21.3232258,15.8659677 18.9654839,16.9085484 16.3635484,16.9085484 L16.3635484,20.9998387 C23.8945161,20.9998387 30,14.8940323 30,7.3633871 C30,3.59758065 26.9470968,0.545 23.1816129,0.545 Z M6.81806452,0.545 C3.05258065,0.545 0,3.59758065 0,7.3633871 C0,11.0830645 2.97903226,14.1046774 6.68129032,14.1785484 C4.95967742,15.8662903 2.60193548,16.9085484 0,16.9085484 L0,20.9998387 C7.53129032,20.9998387 13.636129,14.8940323 13.636129,7.3633871 C13.636129,3.59758065 10.583871,0.545 6.81806452,0.545 Z" id="Shape" fill="#9B9B9B" fill-rule="nonzero"></path>
    </g>
</svg>