<?xml version="1.0" encoding="UTF-8"?>
<svg width="66px" height="56px" viewBox="0 0 66 56" version="1.1" xmlns="http://www.w3.org/2000/svg" xmlns:xlink="http://www.w3.org/1999/xlink">
    <!-- Generator: Sketch 42 (36781) - http://www.bohemiancoding.com/sketch -->
    <title>noun_245391_cc</title>
    <desc>Created with Sketch.</desc>
    <defs></defs>
    <g id="Page-1" stroke="none" stroke-width="1" fill="none" fill-rule="evenodd">
        <g id="Portfolio---HomePage" transform="translate(-687.000000, -1789.000000)" fill-rule="nonzero">
            <g id="Group-7" transform="translate(581.000000, 1789.000000)">
                <g id="noun_245391_cc" transform="translate(106.000000, 0.000000)">
                    <g id="Group">
                        <g id="Shape">
                            <path d="M36.4534286,11.4007385 C35.1428571,10.3384615 30.8571429,11.2 31.7142857,8.61538462 C32.1291429,7.14818462 35.1428571,7.75384615 36.48,9.31581538 C36.72,9.46313846 36.9557143,9.60443077 37.1622857,9.7104 C37.38,9.81550769 37.5257143,9.88615385 37.5257143,9.88615385 L46.2325714,14.5117538 L49.1391429,16.1271385 C49.1391429,16.1271385 49.2017143,16.1478154 49.3748571,16.4045538 C56.4917143,14.7693538 61.1322857,12.0994462 61.1322857,9.08147692 C61.1322857,4.10436923 48.5288571,0.0706461538 32.9811429,0.0706461538 C17.4334286,0.0706461538 4.83,4.10523077 4.83,9.08147692 C4.82914286,14.0568615 17.4334286,18.0923077 32.9811429,18.0923077 C34.9388571,18.0923077 36.8511429,18.0285538 38.6965714,17.9053538 C38.6948571,17.8915692 38.6931429,17.8786462 38.6914286,17.8648615 C38.4377143,15.7876923 37.6405714,13.8216615 37.0662857,12.6112 C36.9505714,12.3691077 36.8442857,12.1571692 36.7534286,11.9814154 C36.5734286,11.6307692 36.4645714,11.4274462 36.4534286,11.4007385 Z" fill="#BF0A20"></path>
                            <path d="M0.161142857,40.7576615 C0.161142857,48.9172923 14.8097143,55.4977231 32.8791429,55.4977231 C50.9494286,55.4977231 65.598,48.8630154 65.598,40.7033846 C65.598,40.5956923 65.586,40.4957538 65.58,40.3915077 C65.6331429,38.8528 65.4471429,37.1176615 65.2405714,35.5410462 C65.1865714,35.1232 65.1282857,34.6958769 65.0708571,34.2608 C63.738,24.2635077 61.8925714,10.4203077 61.8925714,10.4203077 C61.8925714,13.5123692 57.0308571,16.2305231 49.6251429,17.8812308 C50.4548571,22.7678769 52.6182857,35.4953846 52.6928571,35.7977846 C52.7862857,36.1716923 52.6011429,37.1073231 53.532,38.2290462 C54.462,39.3524923 52.974,39.0707692 52.5085714,39.8203077 C52.0431429,40.5681231 50.8337143,39.1646769 50.4608571,39.6324923 C50.0888571,40.1003077 50.4608571,40.1933538 49.6234286,40.8481231 C48.7851429,41.5037538 48.2271429,40.1933538 47.5748571,40.2872615 C46.9234286,40.3803077 47.1102857,41.3159385 46.8308571,41.3159385 C46.5514286,41.3159385 45.5271429,41.3159385 44.7831429,40.3803077 C44.0391429,39.4455385 44.4102857,40.8481231 43.8522857,41.5959385 C43.2951429,42.3446154 42.084,41.8768 41.4334286,41.4089846 C40.7811429,40.9411692 41.4334286,41.4089846 40.968,41.8768 C40.5025714,42.3446154 40.4091429,42.0637538 39.9437143,41.5959385 C39.48,41.1281231 39.2931429,42.4385231 39.2931429,42.4385231 C39.2931429,42.4385231 39.2931429,42.4385231 37.338,41.4098462 C39.3977143,38.0016 39.5991429,26.9730462 38.8551429,19.3639385 C36.966,19.4888615 35.0108571,19.5552 33.0085714,19.5577846 C17.1042857,19.5405538 4.12714286,15.4792615 4.12714286,10.4211692 C4.12714286,10.4211692 2.28171429,24.2643692 0.948857143,34.2616615 C0.891428571,34.6967385 0.834,35.1240615 0.779142857,35.5419077" fill="#C42E40"></path>
                        </g>
                    </g>
                </g>
            </g>
        </g>
    </g>
</svg>