<?xml version="1.0" encoding="UTF-8"?>
<svg width="30px" height="18px" viewBox="0 0 30 18" version="1.1" xmlns="http://www.w3.org/2000/svg" xmlns:xlink="http://www.w3.org/1999/xlink">
    <!-- Generator: Sketch 42 (36781) - http://www.bohemiancoding.com/sketch -->
    <title>BK</title>
    <desc>Created with Sketch.</desc>
    <defs>
        <linearGradient x1="95.5436862%" y1="50%" x2="0%" y2="50%" id="linearGradient-1">
            <stop stop-color="#46A0BB" offset="0%"></stop>
            <stop stop-color="#E3E3E3" offset="100%"></stop>
        </linearGradient>
    </defs>
    <g id="Page-1" stroke="none" stroke-width="1" fill="none" fill-rule="evenodd">
        <g id="Portfolio---About-Copy" transform="translate(-102.000000, -57.000000)" fill="url(#linearGradient-1)">
            <g id="Group" transform="translate(102.000000, 55.000000)">
                <path d="M11.886121,11.6500593 C12.6453181,12.4369355 13.024911,13.3839407 13.024911,14.4911032 C13.024911,15.4084664 12.7896425,16.2230095 12.3190985,16.9347568 C11.8485544,17.6465042 11.1743816,18.2020542 10.2965599,18.6014235 C9.4187382,19.0007928 8.38276595,19.2004745 7.1886121,19.2004745 L6.07354686,19.1767497 C5.02965077,19.1451165 4.0094949,19.1293001 3.01304864,19.1293001 C1.68445362,19.1293001 0.680114116,19.1530247 -7.10542736e-15,19.2004745 L-7.10542736e-15,18.7141163 C0.585214472,18.6903913 1.01027942,18.6271259 1.27520759,18.5243179 C1.54013577,18.42151 1.72202402,18.2317135 1.82087782,17.9549229 C1.91973161,17.6781323 1.96915777,17.2352739 1.96915777,16.6263345 L1.96915777,4.57413998 C1.96915777,3.96520059 1.91973161,3.52234223 1.82087782,3.2455516 C1.72202402,2.96876097 1.54013577,2.77896453 1.27520759,2.67615658 C1.01027942,2.57334864 0.585214472,2.51008316 -7.10542736e-15,2.48635824 L-7.10542736e-15,2 C0.672205813,2.04744982 1.66072894,2.07117438 2.96559905,2.07117438 C3.25029798,2.07117438 4.12810652,2.0593121 5.59905101,2.03558719 L6.63107948,2.02372479 C7.73824199,2.02372479 8.67536192,2.18386554 9.44246738,2.50415184 C10.2095728,2.82443814 10.7868703,3.27125059 11.1743772,3.84460261 C11.5618841,4.41795463 11.7556346,5.08421922 11.7556346,5.84341637 C11.7556346,6.7765962 11.4610547,7.61486382 10.8718861,8.35824437 C10.2827175,9.10162491 9.34757461,9.67101423 8.06642942,10.0664294 L8.06642942,10.113879 C9.85370605,10.3511281 11.1269238,10.8631831 11.886121,11.6500593 Z M4.88730724,2.65836299 C4.63424152,2.77303339 4.46026145,2.97666916 4.3653618,3.26927639 C4.27046216,3.56188363 4.22301305,3.99683381 4.22301305,4.57413998 L4.22301305,10.0664294 L5.86002372,10.0664294 C7.18071044,10.0664294 8.10596809,9.706607 8.63582444,8.98695136 C9.16568078,8.26729573 9.43060498,7.30645125 9.43060498,6.10438909 C9.43060498,4.88651032 9.16172669,3.97904609 8.62396204,3.38196916 C8.08619739,2.78489223 7.22025113,2.48635824 6.02609727,2.48635824 C5.51996584,2.48635824 5.14037295,2.54369259 4.88730724,2.65836299 Z M10.5931198,14.3843416 C10.5931198,13.1111047 10.2471367,12.1423521 9.55516014,11.4780546 C8.86318357,10.8137571 7.76592289,10.4816133 6.2633452,10.4816133 L4.22301305,10.4816133 L4.22301305,16.6263345 C4.22301305,17.211549 4.27046216,17.6425451 4.3653618,17.9193357 C4.46026145,18.1961263 4.63424152,18.3859228 4.88730724,18.4887307 C5.14037295,18.5915387 5.52787402,18.6429419 6.04982206,18.6429419 C9.07870237,18.6429419 10.5931198,17.2234227 10.5931198,14.3843416 Z M28.7663108,18.1921708 C29.0984595,18.4215116 29.5096852,18.5954917 30,18.7141163 L30,19.2004745 C29.2328945,19.1530247 28.2641419,19.1293001 27.0937129,19.1293001 C26.2158912,19.1293001 25.3815777,19.1530247 24.5907473,19.2004745 L24.5907473,18.7141163 C24.9703459,18.6982996 25.2510865,18.6508505 25.4329775,18.5717675 C25.6148684,18.4926845 25.7058126,18.3701076 25.7058126,18.2040332 C25.7058126,18.0537754 25.6227766,17.8600249 25.4567023,17.6227758 L21.9098458,12.2728351 C21.5856053,11.774612 21.3028877,11.4068814 21.0616845,11.1696323 C20.8204812,10.9323832 20.5773045,10.7682883 20.3321471,10.6773428 C20.0869897,10.5863973 19.7627541,10.529063 19.3594306,10.5053381 L19.3594306,16.6263345 C19.3594306,17.2352739 19.4088568,17.6781323 19.5077106,17.9549229 C19.6065644,18.2317135 19.7884526,18.42151 20.0533808,18.5243179 C20.318309,18.6271259 20.7433739,18.6903913 21.3285884,18.7141163 L21.3285884,19.2004745 C20.5852078,19.1530247 19.5571438,19.1293001 18.2443654,19.1293001 C16.8525039,19.1293001 15.8165317,19.1530247 15.1364176,19.2004745 L15.1364176,18.7141163 C15.721632,18.6903913 16.146697,18.6271259 16.4116251,18.5243179 C16.6765533,18.42151 16.8584416,18.2317135 16.9572954,17.9549229 C17.0561492,17.6781323 17.1055753,17.2352739 17.1055753,16.6263345 L17.1055753,4.57413998 C17.1055753,3.96520059 17.0561492,3.52234223 16.9572954,3.2455516 C16.8584416,2.96876097 16.6765533,2.77896453 16.4116251,2.67615658 C16.146697,2.57334864 15.721632,2.51008316 15.1364176,2.48635824 L15.1364176,2 C15.8086234,2.04744982 16.8445956,2.07117438 18.2443654,2.07117438 C19.5571438,2.07117438 20.5852078,2.04744982 21.3285884,2 L21.3285884,2.48635824 C20.7433739,2.51008316 20.318309,2.57334864 20.0533808,2.67615658 C19.7884526,2.77896453 19.6065644,2.96876097 19.5077106,3.2455516 C19.4088568,3.52234223 19.3594306,3.96520059 19.3594306,4.57413998 L19.3594306,10.0189798 C20.5298595,9.97943832 21.4551172,9.52471767 22.1352313,8.65480427 L24.460261,5.68920522 C25.2906329,4.63740083 25.7058126,3.8623987 25.7058126,3.36417556 C25.7058126,2.802686 25.2036428,2.51008316 24.1992883,2.48635824 L24.1992883,2 C25.1245598,2.04744982 26.0537715,2.07117438 26.9869514,2.07117438 C27.888498,2.07117438 28.5804642,2.04744982 29.0628707,2 L29.0628707,2.48635824 C28.525106,2.56544128 28.0209593,2.73942135 27.5504152,3.00830368 C27.0798711,3.277186 26.6271275,3.69236572 26.1921708,4.25385528 L22.2301305,9.33096085 L27.8647687,17.2313167 C28.133651,17.6425485 28.434162,17.96283 28.7663108,18.1921708 Z" id="BK" transform="translate(15.000000, 10.600237) scale(1, -1) translate(-15.000000, -10.600237) "></path>
            </g>
        </g>
    </g>
</svg>